<svg id="visual" viewBox="0 0 900 600" width="900" height="600" xmlns="http://www.w3.org/2000/svg" xmlns:xlink="http://www.w3.org/1999/xlink" version="1.1"><path d="M0 523L30 514.3C60 505.7 120 488.3 180 488.7C240 489 300 507 360 519.7C420 532.3 480 539.7 540 543.8C600 548 660 549 720 546.8C780 544.7 840 539.3 870 536.7L900 534L900 601L870 601C840 601 780 601 720 601C660 601 600 601 540 601C480 601 420 601 360 601C300 601 240 601 180 601C120 601 60 601 30 601L0 601Z" fill="#FFFFFF" stroke-linecap="round" stroke-linejoin="miter"></path></svg>